<svg id="Layer_1" data-name="Layer 1" xmlns="http://www.w3.org/2000/svg" xmlns:xlink="http://www.w3.org/1999/xlink" viewBox="0 0 651.92 166.51"><defs><style>.cls-1{fill:#9437ff;}.cls-2{fill:url(#linear-gradient);}</style><linearGradient id="linear-gradient" x1="174.04" y1="499" x2="358.95" y2="499" gradientUnits="userSpaceOnUse"><stop offset="0" stop-color="#7c60f9"/><stop offset="1" stop-color="#a030ef"/></linearGradient></defs><title>winefi</title><path class="cls-1" d="M476.06,557H450.87l-15-47.33h-.31L421,557H395.76L369.5,481h27l13.13,48.09h.46L423.7,481h25.19l14,48.09h.31L476.52,481h26Z" transform="translate(-174.04 -415.74)"/><path class="cls-1" d="M525.06,470.43a14,14,0,0,1-14.35-13.74c0-7.33,6.26-13.74,14.35-13.74s14.35,6.11,14.35,13.74C539.41,464.48,533,470.43,525.06,470.43ZM512.55,557V481h25v76Z" transform="translate(-174.04 -415.74)"/><path class="cls-1" d="M607.35,557V515.46c0-8.39-2.29-16-11.3-16-8.85,0-13.43,7.64-13.43,16.34V557H557.43V481H581.7V491.5H582c3.51-6.72,12.21-12.68,22.74-12.68,20.46,0,27.79,15.88,27.79,31.15v47Z" transform="translate(-174.04 -415.74)"/><path class="cls-1" d="M726.73,525.84H671.62c.76,8.4,9.16,14.35,18.16,14.35,7.94,0,13.44-3.35,16.8-7.93l17.4,11c-7.17,10.38-19.08,16.18-34.5,16.18-22.9,0-41.83-14.5-41.83-40.15,0-24.88,18-40.76,41.07-40.76,22.44,0,38.16,15.42,38.16,41.37C726.88,521.87,726.88,524,726.73,525.84Zm-22.9-15.57c0-7.94-5-14.5-15-14.5-9.62,0-16.64,6.72-17.25,14.5Z" transform="translate(-174.04 -415.74)"/><path d="M789.63,460.05a23.25,23.25,0,0,0-6.87-1.07c-9.16,0-11.15,7.33-11.15,14.35V481h16.95v18.78H771.61V557h-25V499.74h-13.9V481h13.9v-7.33c0-18.62,7.32-34.95,32.66-34.95a41.94,41.94,0,0,1,12.06,1.52Z" transform="translate(-174.04 -415.74)"/><ellipse cx="637.57" cy="40.95" rx="14.35" ry="13.74"/><rect x="624.89" y="65.22" width="25.19" height="76.02"/><path class="cls-2" d="M349.69,417.62h0A17,17,0,0,0,326.77,425l-39.12,76.3h0l-6.31-12.09,0-.1-2-3.85-4.08-7.81a16.49,16.49,0,0,0-2.64-3.75A17,17,0,0,0,245,477.57l-4,7.85L219,528.17l-12.84-24.59A17,17,0,0,0,176,519.34l24,46,4,7.71a.93.93,0,0,0,.05.1,17,17,0,0,0,30.25-.11,1.17,1.17,0,0,1,.05-.11l4-7.74,21.91-42.75,8.39,16h0l4.07,7.81a17,17,0,0,0,30.25-.12l4-7.83,50.12-97.76A17,17,0,0,0,349.69,417.62Z" transform="translate(-174.04 -415.74)"/></svg>